# xmcd
#
# Track frame offsets:
#	150
#	2908
#	16664
#	29026
#	42504
#	60028
#	72095
#	87421
#	104541
#	115336
#	129636
#	140992
#	150879
#	163453
#
# Disc length: 2448 seconds
#
# Revision: 1
# Processed by: cddbd v1.5.2PL0 Copyright (c) Steve Scherf et al.
# Submitted via: audiograbber 1.83.01
#
DISCID=bd098e0e
DTITLE=Daddy Long Legs - Rides Tonight
DYEAR=2015
DGENRE=Blues
TTITLE0=Kim Fowley Speaks
TTITLE1=Long John's Jump
TTITLE2=I Feel So Electric 
TTITLE3=The Stranger Rides Tonight 
TTITLE4=Blood From A Stone 
TTITLE5=Witch Hunt 
TTITLE6=Motorcycle Madness 
TTITLE7=Evil Eye 
TTITLE8=Flesh Eating Cocaine Blues 
TTITLE9=Chains A Rattlin' 
TTITLE10=Bourgeois Blues
TTITLE11=Shackin' Up 
TTITLE12=Big Road Blues 
TTITLE13=Death Train Blues
EXTD=
EXTT0=
EXTT1=
EXTT2=
EXTT3=
EXTT4=
EXTT5=
EXTT6=
EXTT7=
EXTT8=
EXTT9=
EXTT10=
EXTT11=
EXTT12=
EXTT13=
PLAYORDER=
